<?xml version="1.0" encoding="utf-8" ?>
<svg baseProfile="tiny" height="100%" version="1.2" width="100%" xmlns="http://www.w3.org/2000/svg" xmlns:ev="http://www.w3.org/2001/xml-events" xmlns:xlink="http://www.w3.org/1999/xlink"><defs /><polyline fill="none" points="319,434 319,435 318,436 318,438 317,439 317,440 315,442 315,443 314,444 313,444 312,445 310,445 308,447 307,447 304,450 304,451 302,453 302,454 297,459 296,459 294,461 292,461 291,462 290,462 289,463 288,463 287,464 286,464 285,465 284,465 283,466 282,466 281,467 280,467 278,469 277,469 275,471 274,471 275,472 275,473 276,474 276,475 277,476 277,477 278,478 278,479 282,483 282,484 285,487 285,488 297,500 298,500 303,505 304,505 307,508 308,508 311,511 312,511 313,512 314,512 315,513 316,513 317,514 318,514 320,516 322,516 323,517 324,517 325,518 326,518 327,519 330,519 332,521 332,520 331,520 330,519 328,519 327,518 326,518 325,517 324,517 323,516 321,516 319,514 318,514 317,513 316,513 315,512 314,512 313,511 312,511 309,508 308,508 305,505 304,505 299,500 298,500 285,487 285,486 282,483 282,482 278,478 278,477 277,476 277,475 276,474 276,473 275,472 278,469 279,469 281,467 282,467 283,466 284,466 285,465 286,465 287,464 288,464 289,463 290,463 291,462 292,462 293,461 294,461 295,460 296,460 297,459 298,459 302,455 302,454 304,452 304,451 308,447 309,447 311,445 312,445 313,444 315,444 315,443 317,441 317,439 318,438 318,436 320,434 354,434 355,435 357,435 358,436 359,436 360,437 361,437 362,438 363,438 371,446 371,447 373,449 373,454 372,455 372,457 371,458 371,459 370,460 370,461 367,464 367,465 359,473 358,473 357,474 356,474 355,475 354,475 352,477 350,477 349,478 348,478 347,479 346,479 345,480 343,480 342,481 340,481 339,482 337,482 336,483 333,483 332,484 330,484 329,485 327,485 325,487 324,487 321,490 321,491 319,493 319,498 320,497 321,498 321,496 322,495 322,494 326,490 328,490 329,489 330,489 331,488 334,488 335,487 337,487 338,488 338,489 337,490 337,491 336,492 336,493 335,494 335,496 334,497 334,499 333,500 333,515 334,516 334,521 335,522 334,521 334,516 333,515 333,500 334,499 334,498 335,497 335,495 336,494 336,493 337,492 337,491 338,490 338,487 335,487 334,488 331,488 330,489 329,489 328,490 325,490 323,492 323,493 321,495 321,496 320,497 319,496 319,494 321,492 321,491 325,487 326,487 328,485 329,485 330,484 332,484 333,483 336,483 337,482 339,482 340,481 342,481 343,480 345,480 346,479 347,479 348,478 350,478 351,477 352,477 353,476 354,476 355,475 356,475 357,474 358,474 359,473 360,473 367,466 367,465 370,462 370,461 371,460 371,458 372,457 372,455 373,454 373,449 372,448 372,447 371,446 371,445 364,438 363,438 362,437 361,437 360,436 358,436 357,435 355,435 354,434" stroke="rgb(0%,0%,0%)" /><polyline fill="none" points="260,420 260,427 261,428 261,434 262,435 262,438 263,439 263,442 264,443 264,445 265,446 265,450 266,451 266,452 267,453 267,455 268,456 268,458 269,459 269,461 271,463 271,466 272,466 273,467 274,466 275,466 277,464 278,464 279,463 280,463 282,461 283,461 285,459 286,459 287,458 288,458 289,457 290,457 291,456 292,456 293,455 294,455 295,454 296,454 300,450 300,449 305,444 306,444 309,441 310,441 314,437 314,432 312,432 311,431 310,431 309,430 307,430 306,429 304,429 303,428 301,428 300,427 298,427 297,426 295,426 294,425 292,425 291,424 289,424 288,423 286,423 285,422 281,422 280,421 275,421 274,420" stroke="rgb(0%,0%,0%)" /><polyline fill="none" points="394,419 393,420 392,420 392,421 394,423 394,424 396,426 396,427 397,428 397,430 398,431 398,433 399,434 399,438 400,439 400,446 401,447 401,452 402,453 402,463 403,464 403,471 402,472 402,482 402,472 403,471 403,464 402,463 402,453 401,452 401,447 400,446 400,439 399,438 399,434 398,433 398,431 397,430 397,427 396,426 396,425 393,422 393,421 394,420 404,430 404,431 408,435 408,436 411,439 411,440 414,443 414,444 417,447 417,448 421,452 421,453 425,457 426,457 427,458 427,459 428,460 429,460 432,463 433,463 435,465 436,465 437,466 438,466 439,467 440,467 439,467 437,465 436,465 434,463 433,463 430,460 429,460 427,458 427,457 426,457 421,452 421,451 417,447 417,446 414,443 414,442 411,439 411,438 408,435 408,434 404,430 404,429" stroke="rgb(0%,0%,0%)" /><polyline fill="none" points="452,412 451,413 449,413 448,414 447,414 444,417 444,419 443,420 443,421 442,422 442,424 441,425 441,427 440,428 440,429 439,430 439,432 440,433 440,434 443,437 443,436 439,432 439,430 440,429 440,428 441,427 441,425 442,424 442,422 443,421 443,420 444,419 444,418 448,414 449,414 450,413 451,413 452,412 461,412 462,413 463,413 464,414 467,414 468,415 485,415 486,414 487,414 485,414 484,415 468,415 467,414 464,414 463,413 462,413 461,412" stroke="rgb(0%,0%,0%)" /><polyline fill="none" points="455,408 454,409 450,409 449,410 447,410 445,412 444,412 444,413 442,415 442,416 441,417 441,418 440,419 440,420 438,422 438,423 437,424 437,426 436,427 436,428 437,427 437,425 438,424 438,423 440,421 440,420 441,419 441,418 442,417 442,416 444,414 444,413 445,412 446,412 448,410 449,410 450,409 454,409 455,408 457,408 458,409 462,409 464,411 468,411 469,412 471,412 472,413 479,413 480,412 484,412 480,412 479,413 472,413 471,412 469,412 468,411 465,411 464,410 463,410 462,409 458,409 457,408" stroke="rgb(0%,0%,0%)" /><polyline fill="none" points="261,400 261,401 260,402 260,407 261,408 261,409 272,409 273,410 279,410 280,411 283,411 284,412 286,412 287,413 289,413 290,414 292,414 293,415 295,415 296,416 297,416 298,417 300,417 301,418 303,418 304,419 305,419 306,420 308,420 309,421 311,421 312,422 316,422 317,423 324,423 325,424 352,424 353,425 357,425 358,426 360,426 361,427 362,427 363,428 364,428 365,429 366,429 367,430 368,430 370,432 371,432 377,438 377,439 380,442 380,443 381,444 381,445 382,446 382,447 383,448 383,450 384,451 384,453 385,454 385,458 386,459 386,483 385,484 385,491 384,492 384,498 383,499 383,506 382,507 382,514 383,515 383,523 384,524 384,527 383,528 376,528 375,529 374,529 372,527 372,507 373,506 373,502 374,501 374,498 375,497 375,493 376,492 376,488 377,487 377,481 378,480 378,464 376,464 376,465 374,467 374,468 367,475 366,475 363,478 362,478 361,479 360,479 359,480 358,480 357,481 356,481 355,482 354,482 353,483 351,483 350,484 348,484 347,485 346,485 345,486 343,486 343,487 341,489 341,490 340,491 340,493 339,494 339,495 338,496 338,499 337,500 337,515 338,516 338,520 337,521 337,522 338,523 338,516 337,515 337,500 338,499 338,497 339,496 339,494 340,493 340,492 341,491 341,490 343,488 343,487 344,486 345,486 346,485 348,485 349,484 350,484 351,483 353,483 354,482 356,482 358,480 359,480 360,479 362,479 363,478 364,478 367,475 368,475 374,469 374,468 376,466 376,465 377,464 378,465 378,480 377,481 377,487 376,488 376,492 375,493 375,497 374,498 374,501 373,502 373,506 372,507 372,528 373,528 374,529 375,529 376,528 384,528 384,527 385,526 384,525 384,524 383,523 383,515 382,514 382,507 383,506 383,499 384,498 384,492 385,491 385,484 386,483 386,459 385,458 385,454 384,453 384,451 383,450 383,448 382,447 382,445 381,444 381,443 380,442 380,441 377,438 377,437 372,432 371,432 369,430 368,430 367,429 366,429 365,428 364,428 363,427 361,427 360,426 358,426 357,425 353,425 352,424 325,424 324,423 317,423 316,422 312,422 311,421 309,421 308,420 306,420 305,419 304,419 303,418 301,418 300,417 299,417 298,416 296,416 295,415 293,415 292,414 290,414 289,413 287,413 286,412 284,412 283,411 280,411 279,410 273,410 272,409 262,409 260,407 260,402 262,400 275,400 276,401 282,401 283,402 286,402 287,403 289,403 290,404 292,404 293,405 295,405 296,406 298,406 300,408 302,408 303,409 305,409 306,410 307,410 308,411 310,411 311,412 313,412 314,413 317,413 318,414 321,414 322,415 354,415 355,416 359,416 360,417 362,417 363,418 364,418 365,419 367,419 368,420 369,420 371,422 372,422 373,423 374,423 378,427 379,427 384,432 384,433 386,435 386,436 388,438 388,439 389,440 389,441 390,442 390,443 391,444 391,446 392,447 392,449 393,450 393,454 394,455 394,483 393,484 393,492 392,493 392,499 391,500 391,513 392,514 392,515 393,516 393,517 394,518 394,520 395,521 395,522 396,523 396,525 402,525 403,524 405,524 406,523 408,523 409,522 411,522 412,521 414,521 415,520 416,520 417,519 419,519 420,518 421,518 422,517 423,517 424,516 426,516 428,514 429,514 430,513 431,513 433,511 434,511 435,510 436,510 438,508 439,508 442,505 443,505 448,500 449,500 459,490 459,489 466,482 466,481 468,479 468,478 470,476 470,475 471,474 471,473 472,472 471,472 471,473 470,474 470,475 468,477 468,478 466,480 466,481 459,488 459,489 448,500 447,500 442,505 441,505 438,508 437,508 435,510 434,510 432,512 431,512 430,513 429,513 428,514 427,514 425,516 424,516 423,517 422,517 421,518 419,518 418,519 417,519 416,520 415,520 414,521 412,521 411,522 409,522 408,523 406,523 405,524 403,524 402,525 397,525 396,524 396,522 395,521 395,520 394,519 394,517 393,516 393,515 391,513 391,500 392,499 392,493 393,492 393,484 394,483 394,455 393,454 393,450 392,449 392,447 391,446 391,444 390,443 390,442 389,441 389,439 388,438 388,437 386,435 386,434 384,432 384,431 380,427 379,427 375,423 374,423 373,422 372,422 370,420 369,420 368,419 366,419 365,418 363,418 362,417 360,417 359,416 355,416 354,415 322,415 321,414 318,414 317,413 314,413 313,412 311,412 310,411 308,411 307,410 306,410 305,409 303,409 302,408 301,408 300,407 299,407 298,406 296,406 295,405 293,405 292,404 290,404 289,403 287,403 286,402 283,402 282,401 276,401 275,400" stroke="rgb(0%,0%,0%)" /><polyline fill="none" points="417,390 416,391 414,391 413,392 412,392 411,393 410,393 409,394 409,398 420,409 420,410 426,416 426,417 428,419 428,420 431,423 431,424 434,427 433,426 433,425 431,423 431,422 428,419 428,418 426,416 426,415 420,409 420,408 409,397 409,395 411,393 412,393 414,391 416,391 417,390 437,390 438,391 440,391 441,392 444,392 445,393 447,393 448,394 450,394 451,395 453,395 454,396 456,396 457,397 459,397 460,398 463,398 464,399 466,399 467,400 471,400 472,401 486,401 486,394 485,393 485,395 486,396 486,400 485,401 472,401 471,400 467,400 466,399 464,399 463,398 460,398 459,397 457,397 456,396 454,396 453,395 451,395 450,394 449,394 448,393 445,393 444,392 441,392 440,391 438,391 437,390" stroke="rgb(0%,0%,0%)" /><polyline fill="none" points="889,373 889,375 890,376 890,377 891,378 891,379 892,380 892,381 893,382 893,383 895,385 895,387 896,388 896,389 897,390 897,391 898,392 898,394 900,396 900,397 901,398 901,400 902,401 902,402 904,404 904,405 905,406 905,407 906,408 906,410 908,412 908,413 909,414 909,415 910,416 910,418 911,419 911,420 912,421 912,422 913,423 913,424 914,425 914,426 915,427 915,428 916,429 916,430 917,431 917,432 918,433 918,434 919,435 919,436 920,437 920,438 921,439 921,440 922,441 922,442 923,443 923,444 924,445 924,446 925,446 926,447 927,446 927,445 928,444 928,443 929,442 929,441 930,440 930,439 931,438 931,436 932,435 932,434 933,433 933,432 934,431 934,430 935,429 935,428 936,427 936,425 938,423 938,422 939,421 939,420 940,419 940,418 941,417 941,416 942,415 942,414 943,413 943,411 945,409 945,408 946,407 946,405 947,404 947,403 948,402 948,401 949,400 949,399 950,398 950,397 951,396 951,395 952,394 952,393 953,392 953,391 954,390 954,389 955,388 955,387 956,386 956,385 957,384 957,383 958,382 958,381 959,380 959,378 961,376 961,373 952,373 951,374 951,375 950,376 950,377 949,378 949,379 948,380 948,381 947,382 947,383 946,384 946,385 945,386 945,387 944,388 944,389 943,390 943,391 942,392 942,393 941,394 941,395 940,396 940,397 939,398 939,399 938,400 938,401 937,402 937,403 936,404 936,405 935,406 935,408 933,410 933,412 932,413 932,414 930,416 930,418 929,419 929,420 928,421 928,422 927,423 927,424 925,426 923,424 923,422 922,421 922,420 921,419 921,418 920,417 920,416 919,415 919,414 918,413 918,412 917,411 917,410 916,409 916,407 915,406 915,405 914,404 914,403 913,402 913,401 911,399 911,397 910,396 910,395 909,394 909,393 908,392 908,391 907,390 907,389 906,388 906,387 905,386 905,385 904,384 904,383 903,382 903,381 902,380 902,379 901,378 901,377 900,376 900,375 899,374 899,373" stroke="rgb(0%,0%,0%)" /><polyline fill="none" points="678,373 678,374 677,375 678,376 678,425 679,426 679,429 680,430 680,431 681,432 681,434 683,436 683,437 689,443 690,443 691,444 692,444 693,445 694,445 695,446 698,446 699,447 714,447 715,446 717,446 718,445 719,445 720,444 722,444 725,441 726,441 728,439 728,437 728,438 725,441 724,441 721,444 719,444 718,445 717,445 716,446 715,446 714,447 699,447 698,446 696,446 695,445 694,445 693,444 692,444 691,443 690,443 683,436 683,435 681,433 681,432 680,431 680,430 679,429 679,426 678,425 678,376 677,375 679,373 685,373 686,374 686,376 687,377 687,423 688,424 688,426 689,427 689,429 690,430 690,431 695,436 696,436 697,437 698,437 699,438 702,438 703,439 711,439 712,438 714,438 715,437 716,437 717,436 718,436 719,435 720,435 724,431 724,430 725,429 725,428 727,426 727,424 728,423 728,421 729,420 729,375 731,373 737,373 739,375 739,416 738,417 738,445 737,446 731,446 729,444 730,443 730,438 730,443 729,444 730,445 730,446 738,446 738,417 739,416 739,375 738,374 738,373 730,373 729,374 729,420 728,421 728,423 727,424 727,425 725,427 725,428 724,429 724,430 719,435 718,435 717,436 716,436 715,437 714,437 713,438 712,438 711,439 703,439 702,438 699,438 697,436 696,436 690,430 690,429 689,428 689,427 688,426 688,424 687,423 687,377 686,376 686,373" stroke="rgb(0%,0%,0%)" /><polyline fill="none" points="1054,372 1053,373 1050,373 1049,374 1047,374 1046,375 1045,375 1039,381 1039,382 1038,383 1038,385 1037,386 1037,389 1036,390 1036,393 1037,394 1037,397 1038,398 1038,400 1039,401 1039,402 1043,406 1044,406 1047,409 1049,409 1051,411 1052,411 1053,412 1054,412 1055,413 1057,413 1059,415 1060,415 1061,416 1062,416 1065,419 1066,419 1069,422 1069,423 1070,424 1070,431 1069,432 1069,433 1066,436 1065,436 1063,438 1062,438 1061,439 1049,439 1048,438 1046,438 1045,437 1044,437 1043,436 1042,436 1041,435 1038,435 1038,436 1037,437 1037,438 1036,439 1036,443 1037,443 1039,445 1042,445 1043,446 1045,446 1046,447 1051,447 1052,448 1057,448 1058,447 1063,447 1064,446 1066,446 1067,445 1069,445 1070,444 1071,444 1074,441 1075,441 1076,440 1076,439 1078,437 1078,435 1079,434 1079,432 1080,431 1080,424 1079,423 1079,421 1078,420 1078,418 1077,417 1077,416 1071,410 1070,410 1068,408 1067,408 1066,407 1065,407 1064,406 1063,406 1062,405 1060,405 1058,403 1056,403 1055,402 1054,402 1053,401 1052,401 1047,396 1047,395 1046,394 1046,388 1047,387 1047,386 1051,382 1052,382 1053,381 1055,381 1056,380 1064,380 1065,381 1067,381 1069,383 1070,383 1071,384 1073,384 1073,383 1074,382 1074,381 1075,380 1075,379 1076,378 1076,377 1075,376 1075,375 1074,375 1073,374 1071,374 1070,373 1067,373 1066,372" stroke="rgb(0%,0%,0%)" /><polyline fill="none" points="988,372 987,373 984,373 983,374 981,374 980,375 978,375 977,376 976,376 975,377 974,377 974,382 975,383 975,385 976,386 977,386 978,385 979,385 980,384 981,384 983,382 984,382 985,381 989,381 990,380 999,380 1000,381 1002,381 1003,382 1004,382 1005,383 1006,383 1011,388 1011,389 1013,391 1013,393 1014,394 1014,402 1013,403 1012,402 1011,402 1010,401 1008,401 1007,400 1003,400 1002,399 989,399 988,400 984,400 983,401 980,401 979,402 978,402 977,403 976,403 975,404 974,404 969,409 969,410 967,412 967,414 966,415 966,418 965,419 965,428 966,429 966,432 967,433 967,435 969,437 969,438 973,442 974,442 975,443 976,443 977,444 978,444 979,445 981,445 982,446 984,446 985,447 1001,447 1002,446 1004,446 1005,445 1007,445 1008,444 1009,444 1010,443 1011,443 1014,440 1015,441 1015,442 1016,443 1016,446 1023,446 1023,445 1024,444 1023,443 1023,392 1022,391 1022,388 1021,387 1021,386 1020,385 1020,384 1019,383 1019,382 1017,380 1017,379 1016,378 1015,378 1013,376 1012,376 1011,375 1010,375 1009,374 1007,374 1006,373 1004,373 1003,372" stroke="rgb(0%,0%,0%)" /><polyline fill="none" points="1125,371 1124,372 1118,372 1117,373 1115,373 1114,374 1111,374 1110,375 1109,375 1108,376 1107,376 1105,378 1104,378 1102,380 1101,380 1097,384 1097,385 1094,388 1094,389 1092,391 1092,393 1091,394 1091,395 1090,396 1090,398 1089,399 1089,403 1088,404 1088,415 1089,416 1089,420 1090,421 1090,422 1091,423 1091,425 1093,427 1093,429 1095,431 1095,432 1097,434 1097,435 1099,437 1100,437 1104,441 1105,441 1107,443 1108,443 1109,444 1110,444 1111,445 1114,445 1115,446 1117,446 1118,447 1123,447 1124,448 1131,448 1132,447 1137,447 1138,446 1141,446 1142,445 1144,445 1145,444 1146,444 1147,443 1148,443 1149,442 1150,442 1152,440 1153,440 1154,439 1154,437 1152,435 1152,434 1149,431 1147,431 1143,435 1142,435 1141,436 1140,436 1139,437 1138,437 1137,438 1135,438 1134,439 1124,439 1123,438 1119,438 1118,437 1116,437 1114,435 1113,435 1112,434 1111,434 1103,426 1103,425 1101,423 1101,422 1100,421 1100,420 1099,419 1099,417 1098,416 1098,402 1099,401 1099,399 1100,398 1100,397 1102,395 1102,394 1103,393 1103,392 1108,387 1109,387 1112,384 1113,384 1114,383 1115,383 1116,382 1117,382 1118,381 1122,381 1123,380 1132,380 1133,381 1137,381 1138,382 1139,382 1140,383 1141,383 1142,384 1143,384 1146,387 1149,387 1151,385 1151,384 1154,381 1154,379 1153,378 1152,378 1151,377 1150,377 1149,376 1148,376 1147,375 1145,375 1144,374 1142,374 1141,373 1138,373 1137,372 1132,372 1131,371" stroke="rgb(0%,0%,0%)" /><polyline fill="none" points="783,371 782,372 777,372 776,373 774,373 773,374 772,374 770,376 769,376 768,377 768,378 770,376 771,376 773,374 774,374 775,373 776,373 777,372 782,372 783,371 785,371 786,372 788,372 790,374 789,375 789,376 788,377 788,378 786,380 781,380 780,381 777,381 776,382 775,382 774,383 773,383 770,386 770,387 769,388 769,389 768,390 768,391 767,392 767,395 766,396 766,445 765,446 759,446 758,445 758,400 757,399 757,392 758,391 758,384 757,383 757,375 759,373 764,373 765,374 765,375 766,376 766,378 766,376 765,375 765,373 758,373 758,374 757,375 757,383 758,384 758,391 757,392 757,399 758,400 758,446 766,446 766,396 767,395 767,392 769,390 769,389 770,388 770,387 774,383 775,383 777,381 780,381 781,380 787,380 788,379 788,377 789,376 789,375 790,374 789,373 790,372 786,372 785,371" stroke="rgb(0%,0%,0%)" /><polyline fill="none" points="632,371 631,372 622,372 621,373 619,373 618,374 615,374 614,375 613,375 611,377 610,377 608,379 607,379 603,383 603,384 600,387 600,388 599,389 599,390 598,391 598,393 597,394 597,396 596,397 596,399 595,400 595,418 596,419 596,422 597,423 597,424 598,425 598,427 599,428 599,429 601,431 601,432 604,435 604,436 607,439 608,439 611,442 612,442 613,443 614,443 615,444 616,444 617,445 619,445 620,446 623,446 624,447 630,447 631,448 636,448 637,447 642,447 643,446 646,446 647,445 649,445 650,444 651,444 652,443 654,443 656,441 657,441 659,439 660,439 660,436 658,434 658,433 656,431 654,431 651,434 650,434 648,436 647,436 646,437 644,437 643,438 640,438 639,439 629,439 628,438 625,438 624,437 622,437 621,436 620,436 618,434 617,434 615,432 614,432 613,431 613,430 608,425 608,424 607,423 607,422 606,421 606,420 605,419 605,415 604,414 604,411 606,409 607,410 616,410 617,409 623,409 624,410 640,410 641,409 654,409 655,410 657,410 658,409 663,409 663,397 662,396 662,393 661,392 661,390 660,389 660,388 659,387 659,386 658,385 658,384 652,378 651,378 649,376 648,376 647,375 646,375 645,374 643,374 642,373 640,373 639,372 633,372" stroke="rgb(0%,0%,0%)" /><polyline fill="none" points="1177,360 1177,370 1179,370 1179,368 1180,367 1181,367 1182,368 1184,368 1185,367 1185,366 1183,368 1181,366 1180,367 1179,367 1179,369 1178,370 1177,369 1177,361 1178,360 1179,361 1179,362 1181,364 1184,364 1186,362 1186,361 1187,360 1188,360 1189,361 1189,369 1188,370 1187,369 1187,365 1187,370 1189,370 1189,360 1186,360 1186,361 1183,364 1182,364 1179,361 1179,360" stroke="rgb(0%,0%,0%)" /><polyline fill="none" points="1165,359 1165,361 1167,361 1169,363 1169,370 1171,370 1171,363 1173,361 1174,361 1174,359" stroke="rgb(0%,0%,0%)" /><polyline fill="none" points="840,357 839,358 832,358 831,359 828,359 827,360 825,360 824,361 822,361 821,362 820,362 819,363 818,363 816,365 815,365 812,368 811,368 804,375 804,376 802,378 802,379 801,380 801,381 800,382 800,383 799,384 799,386 798,387 798,388 797,389 797,392 796,393 796,397 795,398 795,409 796,410 796,414 797,415 797,417 798,418 798,419 799,420 799,422 800,423 800,424 801,425 801,426 803,428 803,429 813,439 814,439 816,441 817,441 818,442 819,442 820,443 821,443 822,444 823,444 824,445 827,445 828,446 830,446 831,447 837,447 838,448 844,448 845,447 851,447 852,446 855,446 856,445 858,445 859,444 861,444 862,443 863,443 865,441 866,441 868,439 869,439 874,434 875,434 875,433 880,428 880,427 881,426 881,425 882,424 882,423 883,422 883,420 885,418 885,416 886,415 886,411 887,410 887,395 886,394 886,390 885,389 885,387 884,386 884,384 883,383 883,382 881,380 881,379 879,377 879,376 869,366 868,366 866,364 865,364 863,362 861,362 860,361 859,361 858,360 856,360 855,359 852,359 851,358 842,358 841,357" stroke="rgb(0%,0%,0%)" /><polyline fill="none" points="572,353 572,354 571,355 571,418 571,355 573,353 579,353 580,354 580,376 581,377 581,383 580,384 580,391 581,392 581,408 580,409 580,414 581,415 581,445 580,446 577,443 577,442 574,439 574,438 572,436 572,435 569,432 569,431 565,427 565,426 562,423 562,422 559,419 559,418 556,415 556,414 553,411 553,410 549,406 549,405 546,402 546,401 543,398 543,397 539,393 539,392 536,389 536,388 532,384 532,383 528,379 528,378 527,377 527,378 528,379 528,380 532,384 532,385 536,389 536,390 539,393 539,394 543,398 543,399 546,402 546,403 549,406 549,407 553,411 553,412 556,415 556,416 559,419 559,420 562,423 562,424 565,427 565,428 569,432 569,433 572,436 572,437 575,440 575,441 577,443 577,444 579,446 580,446 581,447 581,415 580,414 580,409 581,408 581,392 580,391 580,384 581,383 581,377 580,376 580,353" stroke="rgb(0%,0%,0%)" /><polyline fill="none" points="516,353 516,355 517,356 516,357 516,358 517,359 517,368 516,369 516,424 517,425 517,430 516,431 516,443 517,444 517,446 525,446 525,378 525,445 524,446 518,446 517,445 517,444 516,443 516,431 517,430 517,425 516,424 516,369 517,368 517,359 516,358 516,357 517,356 516,355" stroke="rgb(0%,0%,0%)" /><polyline fill="none" points="518,352 518,353 519,354 519,355 525,361 525,362 530,367 530,368 533,371 533,372 536,375 536,376 539,379 539,380 542,383 542,384 545,387 545,388 549,392 549,393 552,396 552,397 556,401 556,402 560,406 560,407 565,412 565,413 568,416 568,417 569,418 569,417 568,416 568,415 565,412 565,411 560,406 560,405 556,401 556,400 552,396 552,395 549,392 549,391 545,387 545,386 542,383 542,382 539,379 539,378 536,375 536,374 533,371 533,370 530,367 530,366 525,361 525,360 519,354 519,353" stroke="rgb(0%,0%,0%)" /><polyline fill="none" points="464,349 464,350 467,353 467,354 469,356 469,357 470,358 470,359 472,361 472,362 473,363 473,364 474,365 474,366 476,368 476,369 477,370 477,371 478,372 478,373 479,374 479,375 480,376 480,378 481,379 481,381 481,378 480,377 480,376 479,375 479,374 478,373 478,371 477,370 477,369 476,368 476,367 474,365 474,364 473,363 473,362 472,361 472,360 470,358 470,357 468,355 468,354 467,353 467,352" stroke="rgb(0%,0%,0%)" /><polyline fill="none" points="317,348 316,349 316,363 317,364 317,366 318,367 318,369 319,370 319,372 320,373 320,375 318,377 317,377 316,378 308,378 307,377 305,377 304,376 303,376 302,375 301,375 300,374 299,374 298,373 296,373 295,372 286,372 285,373 285,374 284,375 285,376 285,377 287,377 287,376 288,375 289,375 290,374 291,374 292,375 295,375 297,377 298,377 299,378 300,378 301,379 303,379 304,380 307,380 308,381 314,381 315,382 316,382 317,381 320,381 321,380 322,380 326,384 326,385 330,389 330,390 331,390 337,396 338,396 341,399 342,399 339,396 338,396 333,391 332,391 330,389 330,388 326,384 326,383 323,380 321,380 320,381 317,381 316,382 315,382 314,381 308,381 307,380 305,380 304,379 302,379 301,378 300,378 299,377 298,377 297,376 296,376 295,375 292,375 291,374 290,374 289,375 287,375 287,376 286,377 284,375 287,372 295,372 296,373 297,373 298,374 299,374 300,375 302,375 303,376 304,376 305,377 307,377 308,378 317,378 318,377 319,377 319,376 320,375 320,373 319,372 319,370 318,369 318,367 317,366 317,364 316,363 316,349 317,348 318,348 321,351 321,352 320,353 320,358 319,359 319,360 320,361 320,364 321,365 321,367 322,368 322,370 323,371 323,373 325,375 325,376 330,381 331,381 332,382 333,382 334,383 335,383 336,384 341,384 342,383 344,383 345,382 344,382 343,383 342,383 341,384 336,384 334,382 333,382 332,381 331,381 324,374 324,373 323,372 323,371 322,370 322,368 321,367 321,365 320,364 320,361 319,360 319,359 320,358 320,353 321,352 321,351 320,350 320,349 319,348" stroke="rgb(0%,0%,0%)" /><polyline fill="none" points="397,310 397,315 398,316 398,324 397,325 397,329 401,329 402,328 403,328 404,327 405,327 406,326 407,326 411,322 411,321 413,319 413,318 414,317 415,318 415,320 414,321 414,322 406,330 404,330 402,332 400,332 399,333 396,333 395,334 393,334 391,336 390,336 380,346 380,347 378,349 378,350 377,351 377,352 376,353 376,354 375,355 375,358 374,359 374,363 373,364 373,370 373,364 374,363 374,359 375,358 375,355 377,353 377,352 378,351 378,350 380,348 380,347 391,336 392,336 394,334 395,334 396,333 399,333 400,332 402,332 403,331 404,331 405,330 407,330 413,324 413,323 414,322 414,321 415,320 415,318 414,317 413,317 413,318 411,320 411,321 406,326 405,326 403,328 402,328 401,329 398,329 397,328 397,325 398,324 398,316 397,315" stroke="rgb(0%,0%,0%)" /><polyline fill="none" points="337,310 335,312 333,312 332,313 330,313 329,314 328,314 327,315 326,315 325,316 324,316 323,317 321,317 319,319 318,319 317,320 316,320 315,321 314,321 312,323 311,323 310,324 309,324 306,327 305,327 302,330 301,330 295,336 294,336 293,337 293,338 285,346 285,347 281,351 281,352 279,354 279,355 277,357 277,358 275,360 275,361 274,362 274,363 273,364 273,365 272,366 272,367 271,368 271,370 270,371 270,372 269,373 269,375 268,376 268,377 267,378 267,380 266,381 266,383 265,384 265,389 278,389 279,390 284,390 285,391 288,391 289,392 291,392 292,393 295,393 296,394 298,394 299,395 300,395 301,396 302,396 303,397 305,397 306,398 307,398 308,399 310,399 311,400 312,400 313,401 314,401 315,402 316,402 317,403 320,403 317,403 315,401 313,401 312,400 311,400 310,399 309,399 308,398 307,398 306,397 304,397 303,396 302,396 301,395 299,395 298,394 296,394 295,393 292,393 291,392 289,392 288,391 285,391 284,390 279,390 278,389 266,389 265,388 265,384 266,383 266,381 267,380 267,379 268,378 268,376 269,375 269,374 270,373 270,371 271,370 271,369 272,368 272,367 273,366 273,365 274,364 274,363 275,362 275,361 277,359 277,358 279,356 279,355 281,353 281,352 285,348 285,347 293,339 293,338 296,335 297,335 302,330 303,330 306,327 307,327 310,324 311,324 312,323 313,323 315,321 316,321 317,320 318,320 319,319 320,319 322,317 323,317 324,316 326,316 328,314 330,314 331,313 332,313 333,312 335,312 336,311 337,311 338,310 339,311 339,312 338,313 338,317 337,318 337,328 337,318 338,317 338,313 339,312 339,310" stroke="rgb(0%,0%,0%)" /><polyline fill="none" points="395,309 395,310 394,311 395,312 394,313 395,314 395,325 394,326 394,328 389,333 388,333 386,335 385,335 377,343 377,344 375,346 375,347 374,348 374,349 373,350 373,351 372,352 372,354 371,355 371,356 370,357 370,358 369,359 369,363 369,360 370,359 370,357 371,356 371,355 372,354 372,352 374,350 374,349 375,348 375,347 377,345 377,344 386,335 387,335 389,333 390,333 393,330 393,329 394,328 394,326 395,325 395,314 394,313 395,312 394,311 395,310" stroke="rgb(0%,0%,0%)" /><polyline fill="none" points="351,307 350,308 348,308 347,309 347,312 346,313 346,322 345,323 345,344 346,345 346,353 347,354 347,358 348,359 348,362 349,363 349,364 350,365 350,368 351,369 351,370 352,371 352,372 353,373 353,374 354,375 354,376 356,378 356,379 357,380 357,381 359,383 359,384 368,393 364,397 363,397 360,400 359,400 356,403 355,403 350,408 351,409 357,409 358,408 360,408 361,407 363,407 364,406 365,406 366,405 368,405 369,404 370,404 371,403 372,403 373,402 374,402 375,401 378,401 379,402 381,402 383,404 384,404 385,405 387,405 389,407 390,407 391,408 392,408 394,410 395,410 396,411 397,411 400,414 401,414 407,420 407,421 411,425 411,426 414,429 414,430 416,432 416,433 419,436 419,437 422,440 422,441 426,445 426,446 433,453 434,453 438,457 439,457 440,458 441,458 443,460 444,460 446,462 447,462 448,463 449,463 450,464 452,464 453,465 454,465 455,466 458,466 459,467 463,467 464,468 468,468 469,469 474,469 475,468 475,467 476,466 476,465 477,464 477,461 473,461 472,460 466,460 465,459 461,459 460,458 459,458 458,457 455,457 453,455 452,455 451,454 450,454 448,452 447,452 445,450 444,450 440,446 439,446 436,443 436,442 430,436 430,435 427,432 427,431 424,428 424,427 422,425 422,424 419,421 419,420 414,415 414,414 408,408 407,408 403,404 402,404 400,402 399,402 397,400 396,400 395,399 394,399 393,398 392,398 390,396 389,396 388,395 388,394 390,392 391,392 393,390 394,390 396,388 397,388 398,387 399,387 401,385 403,385 404,384 405,384 406,383 407,383 408,382 410,382 411,381 415,381 416,380 434,380 435,381 440,381 441,382 443,382 444,383 447,383 448,384 450,384 451,385 453,385 454,386 456,386 457,387 459,387 460,388 462,388 463,389 465,389 466,390 470,390 471,391 476,391 477,392 483,392 484,391 484,388 483,387 483,384 482,383 480,383 479,382 472,382 471,381 468,381 467,380 465,380 464,379 462,379 461,378 459,378 458,377 456,377 455,376 453,376 452,375 449,375 448,374 446,374 445,373 441,373 440,372 434,372 433,371 419,371 418,372 412,372 411,373 407,373 406,374 404,374 403,375 401,375 400,376 399,376 398,377 397,377 396,378 395,378 393,380 392,380 391,381 390,381 389,382 388,382 386,384 385,384 384,385 383,385 379,389 377,389 376,388 375,388 367,380 367,379 364,376 364,375 363,374 363,373 361,371 361,370 360,369 360,367 359,366 359,365 358,364 358,363 357,362 357,360 356,359 356,357 355,356 355,352 354,351 354,343 353,342 353,337 354,336 354,323 355,322 355,316 356,315 356,310 357,309 357,307" stroke="rgb(0%,0%,0%)" /><polyline fill="none" points="367,306 367,307 366,308 366,309 365,310 365,311 364,312 364,316 363,317 363,321 362,322 362,331 361,332 361,338 362,339 361,340 361,342 362,343 362,351 363,352 363,351 362,350 362,343 361,342 361,340 362,339 361,338 361,332 362,331 362,322 363,321 363,317 364,316 364,312 365,311 365,310 366,309 366,308 368,306 376,306" stroke="rgb(0%,0%,0%)" /></svg>